HIERARCHY
ROOT Hips
{
    OFFSET 0.000000 0.000000 0.000000
    CHANNELS 6 Xposition Yposition Zposition Zrotation Xrotation Yrotation
    JOINT Chest
    {
        OFFSET -0.000000 0.078597 0.000000
        CHANNELS 3 Zrotation Xrotation Yrotation
        JOINT Chest2
        {
            OFFSET -0.000000 0.230468 0.000000
            CHANNELS 3 Zrotation Xrotation Yrotation
            JOINT Neck
            {
                OFFSET -0.000000 0.249638 0.000000
                CHANNELS 3 Zrotation Xrotation Yrotation
                JOINT Head
                {
                    OFFSET -0.000000 0.103998 0.019170
                    CHANNELS 3 Zrotation Xrotation Yrotation
                    End Site
                    {
                        OFFSET -0.000000 0.191701 0.000000
                    }
                }
            }
            JOINT LeftCollar
            {
                OFFSET 0.038274 0.205938 -0.001496
                CHANNELS 3 Zrotation Xrotation Yrotation
                JOINT LeftShoulder
                {
                    OFFSET 0.132388 0.000000 0.000000
                    CHANNELS 3 Zrotation Xrotation Yrotation
                    JOINT LeftElbow
                    {
                        OFFSET 0.250301 0.000000 0.000000
                        CHANNELS 3 Zrotation Xrotation Yrotation
                        JOINT LeftWrist
                        {
                            OFFSET 0.285291 0.000000 0.000000
                            CHANNELS 3 Zrotation Xrotation Yrotation
                            End Site
                            {
                                OFFSET 0.000000 -0.143776 0.000000
                            }
                        }
                    }
                }
            }
            JOINT RightCollar
            {
                OFFSET -0.038406 0.205938 -0.001496
                CHANNELS 3 Zrotation Xrotation Yrotation
                JOINT RightShoulder
                {
                    OFFSET -0.132388 0.000000 0.000000
                    CHANNELS 3 Zrotation Xrotation Yrotation
                    JOINT RightElbow
                    {
                        OFFSET -0.250301 0.000000 0.000000
                        CHANNELS 3 Zrotation Xrotation Yrotation
                        JOINT RightWrist
                        {
                            OFFSET -0.285291 0.000000 0.000000
                            CHANNELS 3 Zrotation Xrotation Yrotation
                            End Site
                            {
                                OFFSET -0.000000 -0.143776 0.000000
                            }
                        }
                    }
                }
            }
        }
    }
    JOINT LeftHip
    {
        OFFSET 0.095851 0.000000 0.000000
        CHANNELS 3 Zrotation Xrotation Yrotation
        JOINT LeftKnee
        {
            OFFSET -0.000000 -0.406444 0.000000
            CHANNELS 3 Zrotation Xrotation Yrotation
            JOINT LeftAnkle
            {
                OFFSET -0.000000 -0.408443 0.000000
                CHANNELS 3 Zrotation Xrotation Yrotation
                JOINT LeftToe
                {
                    OFFSET -0.000000 -0.062303 0.143776
                    CHANNELS 3 Zrotation Xrotation Yrotation
                    End Site
                    {
                        OFFSET -0.000000 0.000000 0.038340
                    }
                }
            }
        }
    }
    JOINT RightHip
    {
        OFFSET -0.095851 0.000000 0.000000
        CHANNELS 3 Zrotation Xrotation Yrotation
        JOINT RightKnee
        {
            OFFSET -0.000000 -0.406444 0.000000
            CHANNELS 3 Zrotation Xrotation Yrotation
            JOINT RightAnkle
            {
                OFFSET -0.000000 -0.408443 0.000000
                CHANNELS 3 Zrotation Xrotation Yrotation
                JOINT RightToe
                {
                    OFFSET -0.000000 -0.062303 0.143776
                    CHANNELS 3 Zrotation Xrotation Yrotation
                    End Site
                    {
                        OFFSET -0.000000 0.000000 0.038340
                    }
                }
            }
        }
    }
}
MOTION
Frames:    10
Frame Time:    0.016667
0.098710    0.893340    1.614363    -4.701599    1.366087    -95.717110    1.137509    -4.215546    -0.508537    -7.255486    8.642120    0.367886    9.097191    9.165121    -26.148720    5.160370    -3.838751    -25.484947    5.442447    4.861240    -8.593087    -56.494392    40.872272    -20.116274    -4.155975    -5.374750    -8.625123    75.786095    -0.942436    5.569358    -0.896862    -10.983359    14.662700    33.184532    12.655184    5.474556    -45.582317    -35.362610    81.557869    -112.136345    -6.054983    4.463655    6.477326    4.825080    2.235738    -2.632740    11.739762    5.648906    -4.675214    -14.767141    11.430891    0.000000    0.000000    0.000000    -4.198740    6.428265    1.924219    1.617481    4.379466    0.847323    3.063638    -10.065831    -14.473113    0.000000    0.000000    0.000000    
0.098658    0.893259    1.614284    -4.704629    1.402966    -95.739090    1.099435    -4.262181    -0.522653    -7.148388    8.760823    0.363096    9.017390    8.998932    -26.093395    5.170675    -3.734075    -25.463760    5.469694    4.770092    -8.414576    -56.490726    40.856339    -20.205730    -4.059788    -5.893841    -8.785646    75.788963    -0.994518    6.080147    -0.941043    -11.161494    14.613846    33.608852    11.547109    5.349253    -44.900631    -34.973770    80.474159    -111.792175    -5.434810    3.405294    6.525511    4.806224    2.241513    -2.655662    11.810315    5.691590    -4.663575    -14.836753    11.414457    0.000000    0.000000    0.000000    -4.151529    6.394102    1.870225    1.562462    4.497693    0.934686    3.282318    -10.129672    -14.409478    0.000000    0.000000    0.000000    
0.098501    0.893064    1.614103    -4.773013    1.512429    -95.719673    1.072464    -4.186195    -0.579050    -6.991880    8.711313    0.329577    9.012154    9.105729    -26.131153    5.172728    -3.752986    -25.494585    5.410425    4.809928    -8.315691    -56.486061    40.718643    -20.204954    -4.003726    -6.069480    -8.917095    75.844322    -1.066001    6.247619    -0.834345    -11.256450    14.618227    33.949970    10.822757    5.516364    -44.317055    -34.902088    78.085243    -110.058624    -4.716136    1.201571    6.668829    4.852330    2.240982    -2.697335    11.903241    5.638342    -4.634913    -15.005231    11.424996    0.000000    0.000000    0.000000    -4.045109    6.517775    1.852818    1.608701    4.402833    0.904546    3.072267    -10.102565    -14.425349    0.000000    0.000000    0.000000    
0.098470    0.892949    1.614232    -4.716744    1.487597    -95.655762    0.915664    -4.243419    -0.594475    -6.781384    8.663068    0.307390    8.856323    9.150237    -26.069822    5.286925    -3.865254    -25.466063    5.350241    4.830981    -8.334276    -56.545734    40.437321    -20.133595    -4.087769    -6.060244    -9.072626    76.191818    -1.181325    6.239750    -0.835951    -11.342816    14.400682    34.163952    9.494037    5.911333    -42.933140    -34.314194    75.706192    -108.753525    -4.288509    -1.103542    6.634721    4.775341    2.054075    -2.705081    11.911693    5.783989    -4.587718    -15.047433    11.409538    0.000000    0.000000    0.000000    -4.087467    6.472064    1.757850    1.646087    4.408714    0.953693    3.057839    -10.183600    -14.453518    0.000000    0.000000    0.000000    
0.098436    0.893103    1.613908    -4.759354    1.558243    -95.623779    0.818969    -4.227907    -0.731231    -6.693615    8.628217    0.254313    8.900419    9.307562    -26.031094    5.295154    -3.994247    -25.399620    5.320951    4.901373    -8.244098    -56.570179    40.227608    -20.026308    -4.014740    -6.192118    -9.193920    76.203529    -1.366379    6.347774    -0.489960    -11.405602    14.621340    34.294163    8.264465    6.360067    -42.223976    -33.967361    72.095268    -107.650063    -3.985018    -3.677396    6.746720    4.810180    2.092114    -2.733517    11.936071    5.703581    -4.589229    -15.021598    11.428406    0.000000    0.000000    0.000000    -3.929703    6.425944    1.754864    1.462080    4.645677    0.926293    3.363901    -10.187993    -14.333784    0.000000    0.000000    0.000000    
0.098592    0.892802    1.613980    -4.605908    1.595563    -95.513100    0.762642    -4.398141    -0.833941    -6.611434    8.587874    0.211978    8.898139    9.393282    -25.976042    5.238758    -4.154758    -25.325130    5.299075    4.927786    -8.182270    -56.506210    40.141903    -20.057014    -4.090297    -6.377844    -9.332776    76.417046    -1.396641    6.543341    -0.418843    -11.487737    14.651772    34.405025    6.869898    6.942367    -41.825184    -33.305870    67.870888    -106.838264    -3.775321    -5.770112    6.824629    4.581289    2.056434    -2.719115    11.995195    5.631299    -4.242826    -14.769837    10.776509    0.000000    0.000000    0.000000    -3.926751    6.298640    1.790265    1.588632    4.625017    0.908016    3.248123    -10.247701    -14.460754    0.000000    0.000000    0.000000    
0.098383    0.892830    1.613861    -4.631166    1.589581    -95.400604    0.580970    -4.428222    -0.924272    -6.443491    8.609400    0.172856    8.810280    9.317073    -25.982449    5.251653    -4.016976    -25.363729    5.299850    4.897343    -8.162794    -56.539036    40.131020    -20.004538    -4.068155    -6.311508    -9.422218    76.410316    -1.387277    6.479473    -0.539633    -11.785254    14.619628    34.789543    6.020971    7.687242    -42.775139    -32.697132    62.243176    -106.782097    -3.558712    -7.520914    6.823595    4.636969    2.039912    -2.709151    11.959912    5.550696    -4.553985    -15.148401    11.364267    0.000000    0.000000    0.000000    -3.943199    6.503044    1.842410    1.716570    4.298110    0.792614    2.954678    -10.116057    -14.667055    0.000000    0.000000    0.000000    
0.098436    0.892900    1.614090    -4.609260    1.613462    -95.386292    0.612283    -4.454155    -0.960868    -6.494610    8.599572    0.163614    8.714340    9.204690    -25.948717    5.268698    -3.987637    -25.360979    5.333664    4.850267    -8.129747    -56.526493    40.444122    -19.969990    -3.898614    -6.648667    -9.517938    76.360069    -1.454086    6.797153    -0.537986    -11.863352    14.507898    34.917679    4.950607    8.798672    -44.075230    -31.660757    56.314693    -106.655594    -3.367990    -8.645825    6.816952    4.634002    2.043154    -2.668440    11.913527    5.548373    -4.565248    -15.130857    11.331929    0.000000    0.000000    0.000000    -3.942623    6.487674    1.863345    1.740859    4.278238    0.776631    2.990331    -10.068373    -14.677849    0.000000    0.000000    0.000000    
0.098071    0.893055    1.613770    -4.689236    1.567781    -95.252304    0.406673    -4.476956    -1.091628    -6.388198    8.689196    0.119750    8.576420    9.127530    -25.919840    5.369770    -3.917837    -25.378227    5.348881    4.845344    -8.109873    -56.480804    40.432243    -19.923714    -3.922413    -6.630010    -9.624867    76.317230    -1.484567    6.779954    -0.609163    -11.898580    14.398427    35.159019    4.462547    9.991349    -45.764080    -30.987005    50.014378    -106.077278    -3.115624    -10.154143    6.810781    4.739019    1.991261    -2.686144    11.844646    5.436505    -4.606334    -15.037543    11.387495    0.000000    0.000000    0.000000    -3.931476    6.660739    1.695029    1.680508    4.194739    0.829019    3.123737    -10.037063    -14.742863    0.000000    0.000000    0.000000    
0.098031    0.893297    1.614095    -4.658599    1.490862    -95.214577    0.431399    -4.540733    -1.130143    -6.673742    8.648600    0.125980    8.712699    9.131241    -25.918859    5.318252    -3.947282    -25.342199    5.492333    4.843252    -8.189815    -56.515350    40.294151    -19.814877    -3.962023    -6.601523    -9.570436    76.228050    -1.537109    6.745394    -0.306877    -11.805218    14.335112    34.913506    2.838090    11.149441    -45.644115    -29.919159    45.641304    -106.605072    -2.488670    -11.171406    6.691247    4.722628    1.928805    -2.650159    11.772159    5.519009    -4.633021    -14.888002    11.352311    0.000000    0.000000    0.000000    -4.036876    6.651692    1.687373    1.708827    4.148388    0.819095    3.142488    -9.954947    -14.765367    0.000000    0.000000    0.000000    
